<mxfile host="Electron" modified="2023-05-31T07:07:50.245Z" agent="Mozilla/5.0 (Windows NT 10.0; Win64; x64) AppleWebKit/537.36 (KHTML, like Gecko) draw.io/21.2.8 Chrome/112.0.5615.165 Electron/24.2.0 Safari/537.36" etag="pwqdc2IrqXiWGFVFCvdm" version="21.2.8" type="device">
  <diagram id="C5RBs43oDa-KdzZeNtuy" name="Page-1">
    <mxGraphModel dx="1489" dy="1889" grid="1" gridSize="10" guides="1" tooltips="1" connect="1" arrows="1" fold="1" page="1" pageScale="1" pageWidth="827" pageHeight="1169" math="0" shadow="0">
      <root>
        <mxCell id="WIyWlLk6GJQsqaUBKTNV-0" />
        <mxCell id="WIyWlLk6GJQsqaUBKTNV-1" parent="WIyWlLk6GJQsqaUBKTNV-0" />
        <mxCell id="wX9MfMcd7M8Y0ToEDRrp-32" value="" style="shape=folder;fontStyle=1;spacingTop=10;tabWidth=40;tabHeight=14;tabPosition=left;html=1;whiteSpace=wrap;" vertex="1" parent="WIyWlLk6GJQsqaUBKTNV-1">
          <mxGeometry x="480" y="30" width="150" height="280" as="geometry" />
        </mxCell>
        <mxCell id="wX9MfMcd7M8Y0ToEDRrp-0" value="" style="shape=folder;fontStyle=1;spacingTop=10;tabWidth=40;tabHeight=14;tabPosition=left;html=1;whiteSpace=wrap;" vertex="1" parent="WIyWlLk6GJQsqaUBKTNV-1">
          <mxGeometry x="30" y="30" width="310" height="280" as="geometry" />
        </mxCell>
        <mxCell id="wX9MfMcd7M8Y0ToEDRrp-1" value="models" style="text;align=center;fontStyle=1;verticalAlign=middle;spacingLeft=3;spacingRight=3;strokeColor=none;rotatable=0;points=[[0,0.5],[1,0.5]];portConstraint=eastwest;html=1;" vertex="1" parent="WIyWlLk6GJQsqaUBKTNV-1">
          <mxGeometry x="145" y="50" width="80" height="26" as="geometry" />
        </mxCell>
        <mxCell id="wX9MfMcd7M8Y0ToEDRrp-2" value="&lt;p style=&quot;margin:0px;margin-top:4px;text-align:center;&quot;&gt;&lt;br&gt;&lt;b&gt;Database&lt;/b&gt;&lt;/p&gt;" style="verticalAlign=top;align=left;overflow=fill;fontSize=12;fontFamily=Helvetica;html=1;whiteSpace=wrap;" vertex="1" parent="WIyWlLk6GJQsqaUBKTNV-1">
          <mxGeometry x="40" y="160" width="100" height="40" as="geometry" />
        </mxCell>
        <mxCell id="wX9MfMcd7M8Y0ToEDRrp-3" value="&lt;p style=&quot;margin:0px;margin-top:4px;text-align:center;&quot;&gt;ModelFigure&lt;/p&gt;" style="verticalAlign=top;align=left;overflow=fill;fontSize=12;fontFamily=Helvetica;html=1;whiteSpace=wrap;" vertex="1" parent="WIyWlLk6GJQsqaUBKTNV-1">
          <mxGeometry x="220" y="210" width="100" height="25" as="geometry" />
        </mxCell>
        <mxCell id="wX9MfMcd7M8Y0ToEDRrp-4" value="&lt;p style=&quot;margin:0px;margin-top:4px;text-align:center;&quot;&gt;ModelFigureInfo&lt;/p&gt;" style="verticalAlign=top;align=left;overflow=fill;fontSize=12;fontFamily=Helvetica;html=1;whiteSpace=wrap;" vertex="1" parent="WIyWlLk6GJQsqaUBKTNV-1">
          <mxGeometry x="220" y="250" width="100" height="25" as="geometry" />
        </mxCell>
        <mxCell id="wX9MfMcd7M8Y0ToEDRrp-7" value="&lt;p style=&quot;margin:0px;margin-top:4px;text-align:center;&quot;&gt;ModelSeries&lt;/p&gt;" style="verticalAlign=top;align=left;overflow=fill;fontSize=12;fontFamily=Helvetica;html=1;whiteSpace=wrap;" vertex="1" parent="WIyWlLk6GJQsqaUBKTNV-1">
          <mxGeometry x="220" y="100" width="100" height="25" as="geometry" />
        </mxCell>
        <mxCell id="wX9MfMcd7M8Y0ToEDRrp-9" value="" style="endArrow=block;endSize=16;endFill=0;html=1;rounded=0;exitX=0;exitY=0.5;exitDx=0;exitDy=0;edgeStyle=orthogonalEdgeStyle;entryX=1;entryY=0.5;entryDx=0;entryDy=0;" edge="1" parent="WIyWlLk6GJQsqaUBKTNV-1" source="wX9MfMcd7M8Y0ToEDRrp-4" target="wX9MfMcd7M8Y0ToEDRrp-2">
          <mxGeometry width="160" relative="1" as="geometry">
            <mxPoint x="100" y="25" as="sourcePoint" />
            <mxPoint x="90" y="200" as="targetPoint" />
            <Array as="points">
              <mxPoint x="180" y="263" />
              <mxPoint x="180" y="180" />
            </Array>
          </mxGeometry>
        </mxCell>
        <mxCell id="wX9MfMcd7M8Y0ToEDRrp-10" value="" style="endArrow=block;endSize=16;endFill=0;html=1;rounded=0;entryX=1;entryY=0.5;entryDx=0;entryDy=0;exitX=0;exitY=0.5;exitDx=0;exitDy=0;edgeStyle=orthogonalEdgeStyle;" edge="1" parent="WIyWlLk6GJQsqaUBKTNV-1" source="wX9MfMcd7M8Y0ToEDRrp-6" target="wX9MfMcd7M8Y0ToEDRrp-2">
          <mxGeometry width="160" relative="1" as="geometry">
            <mxPoint x="220" y="25" as="sourcePoint" />
            <mxPoint x="345" y="-40" as="targetPoint" />
          </mxGeometry>
        </mxCell>
        <mxCell id="wX9MfMcd7M8Y0ToEDRrp-12" value="" style="endArrow=block;endSize=16;endFill=0;html=1;rounded=0;entryX=1;entryY=0.5;entryDx=0;entryDy=0;exitX=0;exitY=0.5;exitDx=0;exitDy=0;edgeStyle=orthogonalEdgeStyle;" edge="1" parent="WIyWlLk6GJQsqaUBKTNV-1" source="wX9MfMcd7M8Y0ToEDRrp-7" target="wX9MfMcd7M8Y0ToEDRrp-2">
          <mxGeometry width="160" relative="1" as="geometry">
            <mxPoint x="465" y="25" as="sourcePoint" />
            <mxPoint x="345" y="-40" as="targetPoint" />
            <Array as="points">
              <mxPoint x="220" y="110" />
              <mxPoint x="180" y="110" />
              <mxPoint x="180" y="180" />
            </Array>
          </mxGeometry>
        </mxCell>
        <mxCell id="wX9MfMcd7M8Y0ToEDRrp-17" value="" style="endArrow=block;endSize=16;endFill=0;html=1;rounded=0;entryX=1;entryY=0.5;entryDx=0;entryDy=0;exitX=0;exitY=0.5;exitDx=0;exitDy=0;edgeStyle=orthogonalEdgeStyle;" edge="1" parent="WIyWlLk6GJQsqaUBKTNV-1" source="wX9MfMcd7M8Y0ToEDRrp-3" target="wX9MfMcd7M8Y0ToEDRrp-2">
          <mxGeometry width="160" relative="1" as="geometry">
            <mxPoint x="245" y="340" as="sourcePoint" />
            <mxPoint x="90" y="200" as="targetPoint" />
            <Array as="points">
              <mxPoint x="180" y="223" />
              <mxPoint x="180" y="180" />
            </Array>
          </mxGeometry>
        </mxCell>
        <mxCell id="wX9MfMcd7M8Y0ToEDRrp-5" value="&lt;p style=&quot;margin:0px;margin-top:4px;text-align:center;&quot;&gt;ModelFigureType&lt;/p&gt;" style="verticalAlign=top;align=left;overflow=fill;fontSize=12;fontFamily=Helvetica;html=1;whiteSpace=wrap;" vertex="1" parent="WIyWlLk6GJQsqaUBKTNV-1">
          <mxGeometry x="220" y="175" width="100" height="25" as="geometry" />
        </mxCell>
        <mxCell id="wX9MfMcd7M8Y0ToEDRrp-18" value="" style="endArrow=block;endSize=16;endFill=0;html=1;rounded=0;entryX=1;entryY=0.5;entryDx=0;entryDy=0;edgeStyle=orthogonalEdgeStyle;" edge="1" parent="WIyWlLk6GJQsqaUBKTNV-1" source="wX9MfMcd7M8Y0ToEDRrp-5" target="wX9MfMcd7M8Y0ToEDRrp-2">
          <mxGeometry width="160" relative="1" as="geometry">
            <mxPoint x="245" y="260" as="sourcePoint" />
            <mxPoint x="90" y="200" as="targetPoint" />
          </mxGeometry>
        </mxCell>
        <mxCell id="wX9MfMcd7M8Y0ToEDRrp-19" value="Extends" style="edgeLabel;html=1;align=center;verticalAlign=middle;resizable=0;points=[];" vertex="1" connectable="0" parent="wX9MfMcd7M8Y0ToEDRrp-18">
          <mxGeometry x="0.2411" y="1" relative="1" as="geometry">
            <mxPoint x="7" y="-1" as="offset" />
          </mxGeometry>
        </mxCell>
        <mxCell id="wX9MfMcd7M8Y0ToEDRrp-6" value="&lt;p style=&quot;margin:0px;margin-top:4px;text-align:center;&quot;&gt;ModelManufacturer&lt;/p&gt;" style="verticalAlign=top;align=left;overflow=fill;fontSize=12;fontFamily=Helvetica;html=1;whiteSpace=wrap;" vertex="1" parent="WIyWlLk6GJQsqaUBKTNV-1">
          <mxGeometry x="220" y="135" width="110" height="25" as="geometry" />
        </mxCell>
        <mxCell id="wX9MfMcd7M8Y0ToEDRrp-21" value="&lt;p style=&quot;margin:0px;margin-top:4px;text-align:center;&quot;&gt;Figure&lt;/p&gt;&lt;p style=&quot;margin:0px;margin-top:4px;text-align:center;&quot;&gt;&lt;br&gt;&lt;/p&gt;" style="verticalAlign=top;align=left;overflow=fill;fontSize=12;fontFamily=Helvetica;html=1;whiteSpace=wrap;" vertex="1" parent="WIyWlLk6GJQsqaUBKTNV-1">
          <mxGeometry x="505" y="210" width="100" height="25" as="geometry" />
        </mxCell>
        <mxCell id="wX9MfMcd7M8Y0ToEDRrp-22" value="&lt;p style=&quot;margin:0px;margin-top:4px;text-align:center;&quot;&gt;FigureCard&lt;/p&gt;" style="verticalAlign=top;align=left;overflow=fill;fontSize=12;fontFamily=Helvetica;html=1;whiteSpace=wrap;" vertex="1" parent="WIyWlLk6GJQsqaUBKTNV-1">
          <mxGeometry x="505" y="250" width="100" height="25" as="geometry" />
        </mxCell>
        <mxCell id="wX9MfMcd7M8Y0ToEDRrp-23" value="&lt;p style=&quot;margin:0px;margin-top:4px;text-align:center;&quot;&gt;FigureType&lt;/p&gt;" style="verticalAlign=top;align=left;overflow=fill;fontSize=12;fontFamily=Helvetica;html=1;whiteSpace=wrap;" vertex="1" parent="WIyWlLk6GJQsqaUBKTNV-1">
          <mxGeometry x="505" y="175" width="100" height="25" as="geometry" />
        </mxCell>
        <mxCell id="wX9MfMcd7M8Y0ToEDRrp-24" value="&lt;p style=&quot;margin:0px;margin-top:4px;text-align:center;&quot;&gt;Manufacturer&lt;/p&gt;" style="verticalAlign=top;align=left;overflow=fill;fontSize=12;fontFamily=Helvetica;html=1;whiteSpace=wrap;" vertex="1" parent="WIyWlLk6GJQsqaUBKTNV-1">
          <mxGeometry x="505" y="135" width="100" height="25" as="geometry" />
        </mxCell>
        <mxCell id="wX9MfMcd7M8Y0ToEDRrp-25" value="&lt;p style=&quot;margin:0px;margin-top:4px;text-align:center;&quot;&gt;Series&lt;/p&gt;" style="verticalAlign=top;align=left;overflow=fill;fontSize=12;fontFamily=Helvetica;html=1;whiteSpace=wrap;" vertex="1" parent="WIyWlLk6GJQsqaUBKTNV-1">
          <mxGeometry x="505" y="100" width="100" height="25" as="geometry" />
        </mxCell>
        <mxCell id="wX9MfMcd7M8Y0ToEDRrp-26" value="Use" style="endArrow=open;endSize=12;dashed=1;html=1;rounded=0;exitX=1;exitY=0.5;exitDx=0;exitDy=0;entryX=0;entryY=0.5;entryDx=0;entryDy=0;" edge="1" parent="WIyWlLk6GJQsqaUBKTNV-1" source="wX9MfMcd7M8Y0ToEDRrp-7" target="wX9MfMcd7M8Y0ToEDRrp-25">
          <mxGeometry width="160" relative="1" as="geometry">
            <mxPoint x="310" y="300" as="sourcePoint" />
            <mxPoint x="470" y="300" as="targetPoint" />
          </mxGeometry>
        </mxCell>
        <mxCell id="wX9MfMcd7M8Y0ToEDRrp-27" value="Use" style="endArrow=open;endSize=12;dashed=1;html=1;rounded=0;exitX=1;exitY=0.5;exitDx=0;exitDy=0;entryX=0;entryY=0.5;entryDx=0;entryDy=0;" edge="1" parent="WIyWlLk6GJQsqaUBKTNV-1" source="wX9MfMcd7M8Y0ToEDRrp-6" target="wX9MfMcd7M8Y0ToEDRrp-24">
          <mxGeometry width="160" relative="1" as="geometry">
            <mxPoint x="330" y="123" as="sourcePoint" />
            <mxPoint x="450" y="123" as="targetPoint" />
          </mxGeometry>
        </mxCell>
        <mxCell id="wX9MfMcd7M8Y0ToEDRrp-28" value="Use" style="endArrow=open;endSize=12;dashed=1;html=1;rounded=0;exitX=1;exitY=0.5;exitDx=0;exitDy=0;entryX=0;entryY=0.5;entryDx=0;entryDy=0;" edge="1" parent="WIyWlLk6GJQsqaUBKTNV-1" source="wX9MfMcd7M8Y0ToEDRrp-5" target="wX9MfMcd7M8Y0ToEDRrp-23">
          <mxGeometry width="160" relative="1" as="geometry">
            <mxPoint x="340" y="133" as="sourcePoint" />
            <mxPoint x="460" y="133" as="targetPoint" />
          </mxGeometry>
        </mxCell>
        <mxCell id="wX9MfMcd7M8Y0ToEDRrp-29" value="Use" style="endArrow=open;endSize=12;dashed=1;html=1;rounded=0;exitX=1;exitY=0.5;exitDx=0;exitDy=0;entryX=0;entryY=0.5;entryDx=0;entryDy=0;" edge="1" parent="WIyWlLk6GJQsqaUBKTNV-1" source="wX9MfMcd7M8Y0ToEDRrp-3" target="wX9MfMcd7M8Y0ToEDRrp-21">
          <mxGeometry width="160" relative="1" as="geometry">
            <mxPoint x="350" y="143" as="sourcePoint" />
            <mxPoint x="470" y="143" as="targetPoint" />
          </mxGeometry>
        </mxCell>
        <mxCell id="wX9MfMcd7M8Y0ToEDRrp-30" value="Use" style="endArrow=open;endSize=12;dashed=1;html=1;rounded=0;exitX=1;exitY=0.5;exitDx=0;exitDy=0;entryX=0;entryY=0.5;entryDx=0;entryDy=0;" edge="1" parent="WIyWlLk6GJQsqaUBKTNV-1" source="wX9MfMcd7M8Y0ToEDRrp-4" target="wX9MfMcd7M8Y0ToEDRrp-22">
          <mxGeometry width="160" relative="1" as="geometry">
            <mxPoint x="330" y="233" as="sourcePoint" />
            <mxPoint x="450" y="233" as="targetPoint" />
          </mxGeometry>
        </mxCell>
        <mxCell id="wX9MfMcd7M8Y0ToEDRrp-33" value="objects" style="text;align=center;fontStyle=1;verticalAlign=middle;spacingLeft=3;spacingRight=3;strokeColor=none;rotatable=0;points=[[0,0.5],[1,0.5]];portConstraint=eastwest;html=1;" vertex="1" parent="WIyWlLk6GJQsqaUBKTNV-1">
          <mxGeometry x="515" y="50" width="80" height="26" as="geometry" />
        </mxCell>
        <mxCell id="wX9MfMcd7M8Y0ToEDRrp-34" value="" style="endArrow=open;endSize=12;dashed=1;html=1;rounded=0;exitX=1;exitY=1;exitDx=0;exitDy=0;edgeStyle=orthogonalEdgeStyle;" edge="1" parent="WIyWlLk6GJQsqaUBKTNV-1" source="wX9MfMcd7M8Y0ToEDRrp-3">
          <mxGeometry x="0.0698" width="160" relative="1" as="geometry">
            <mxPoint x="280" y="220" as="sourcePoint" />
            <mxPoint x="320" y="180" as="targetPoint" />
            <Array as="points">
              <mxPoint x="390" y="235" />
              <mxPoint x="390" y="180" />
            </Array>
            <mxPoint as="offset" />
          </mxGeometry>
        </mxCell>
        <mxCell id="wX9MfMcd7M8Y0ToEDRrp-35" value="" style="endArrow=open;endSize=12;dashed=1;html=1;rounded=0;exitX=1;exitY=1;exitDx=0;exitDy=0;edgeStyle=orthogonalEdgeStyle;entryX=1;entryY=1;entryDx=0;entryDy=0;" edge="1" parent="WIyWlLk6GJQsqaUBKTNV-1" source="wX9MfMcd7M8Y0ToEDRrp-3" target="wX9MfMcd7M8Y0ToEDRrp-6">
          <mxGeometry x="0.0698" width="160" relative="1" as="geometry">
            <mxPoint x="330" y="245" as="sourcePoint" />
            <mxPoint x="330" y="190" as="targetPoint" />
            <Array as="points">
              <mxPoint x="390" y="235" />
              <mxPoint x="390" y="160" />
            </Array>
            <mxPoint as="offset" />
          </mxGeometry>
        </mxCell>
        <mxCell id="wX9MfMcd7M8Y0ToEDRrp-36" value="Use" style="edgeLabel;html=1;align=center;verticalAlign=middle;resizable=0;points=[];" vertex="1" connectable="0" parent="wX9MfMcd7M8Y0ToEDRrp-35">
          <mxGeometry x="-0.0151" relative="1" as="geometry">
            <mxPoint as="offset" />
          </mxGeometry>
        </mxCell>
        <mxCell id="wX9MfMcd7M8Y0ToEDRrp-38" value="&lt;p style=&quot;margin:0px;margin-top:4px;text-align:center;&quot;&gt;Config&lt;/p&gt;" style="verticalAlign=top;align=left;overflow=fill;fontSize=12;fontFamily=Helvetica;html=1;whiteSpace=wrap;" vertex="1" parent="WIyWlLk6GJQsqaUBKTNV-1">
          <mxGeometry x="40" y="350" width="100" height="25" as="geometry" />
        </mxCell>
        <mxCell id="wX9MfMcd7M8Y0ToEDRrp-41" value="Use" style="endArrow=open;endSize=12;dashed=1;html=1;rounded=0;entryX=0.5;entryY=0;entryDx=0;entryDy=0;exitX=0.5;exitY=1;exitDx=0;exitDy=0;" edge="1" parent="WIyWlLk6GJQsqaUBKTNV-1" source="wX9MfMcd7M8Y0ToEDRrp-2" target="wX9MfMcd7M8Y0ToEDRrp-38">
          <mxGeometry width="160" relative="1" as="geometry">
            <mxPoint x="40" y="250" as="sourcePoint" />
            <mxPoint x="200" y="250" as="targetPoint" />
          </mxGeometry>
        </mxCell>
        <mxCell id="wX9MfMcd7M8Y0ToEDRrp-43" value="&lt;p style=&quot;margin:0px;margin-top:4px;text-align:center;&quot;&gt;App&lt;/p&gt;" style="verticalAlign=top;align=left;overflow=fill;fontSize=12;fontFamily=Helvetica;html=1;whiteSpace=wrap;" vertex="1" parent="WIyWlLk6GJQsqaUBKTNV-1">
          <mxGeometry x="220" y="350" width="100" height="25" as="geometry" />
        </mxCell>
        <mxCell id="wX9MfMcd7M8Y0ToEDRrp-44" value="" style="endArrow=open;endSize=12;dashed=1;html=1;rounded=0;exitX=0;exitY=1;exitDx=0;exitDy=0;entryX=0;entryY=0.5;entryDx=0;entryDy=0;edgeStyle=orthogonalEdgeStyle;" edge="1" parent="WIyWlLk6GJQsqaUBKTNV-1" source="wX9MfMcd7M8Y0ToEDRrp-7" target="wX9MfMcd7M8Y0ToEDRrp-43">
          <mxGeometry width="160" relative="1" as="geometry">
            <mxPoint x="120" y="250" as="sourcePoint" />
            <mxPoint x="280" y="250" as="targetPoint" />
            <Array as="points">
              <mxPoint x="200" y="126" />
              <mxPoint x="200" y="362" />
            </Array>
          </mxGeometry>
        </mxCell>
        <mxCell id="wX9MfMcd7M8Y0ToEDRrp-47" value="" style="endArrow=open;endSize=12;dashed=1;html=1;rounded=0;exitX=0;exitY=1;exitDx=0;exitDy=0;entryX=0;entryY=0.5;entryDx=0;entryDy=0;edgeStyle=orthogonalEdgeStyle;" edge="1" parent="WIyWlLk6GJQsqaUBKTNV-1" source="wX9MfMcd7M8Y0ToEDRrp-6" target="wX9MfMcd7M8Y0ToEDRrp-43">
          <mxGeometry width="160" relative="1" as="geometry">
            <mxPoint x="130" y="250" as="sourcePoint" />
            <mxPoint x="290" y="250" as="targetPoint" />
            <Array as="points">
              <mxPoint x="200" y="160" />
              <mxPoint x="200" y="363" />
            </Array>
          </mxGeometry>
        </mxCell>
        <mxCell id="wX9MfMcd7M8Y0ToEDRrp-50" value="" style="endArrow=open;endSize=12;dashed=1;html=1;rounded=0;exitX=0;exitY=1;exitDx=0;exitDy=0;entryX=0;entryY=0.5;entryDx=0;entryDy=0;edgeStyle=orthogonalEdgeStyle;" edge="1" parent="WIyWlLk6GJQsqaUBKTNV-1" source="wX9MfMcd7M8Y0ToEDRrp-4" target="wX9MfMcd7M8Y0ToEDRrp-43">
          <mxGeometry x="0.0193" y="10" width="160" relative="1" as="geometry">
            <mxPoint x="130" y="250" as="sourcePoint" />
            <mxPoint x="290" y="250" as="targetPoint" />
            <Array as="points">
              <mxPoint x="200" y="275" />
              <mxPoint x="200" y="363" />
            </Array>
            <mxPoint as="offset" />
          </mxGeometry>
        </mxCell>
        <mxCell id="wX9MfMcd7M8Y0ToEDRrp-51" value="" style="endArrow=open;endSize=12;dashed=1;html=1;rounded=0;exitX=0;exitY=0;exitDx=0;exitDy=0;entryX=0;entryY=0.5;entryDx=0;entryDy=0;edgeStyle=orthogonalEdgeStyle;" edge="1" parent="WIyWlLk6GJQsqaUBKTNV-1" source="wX9MfMcd7M8Y0ToEDRrp-3" target="wX9MfMcd7M8Y0ToEDRrp-43">
          <mxGeometry x="0.0389" y="10" width="160" relative="1" as="geometry">
            <mxPoint x="160" y="210" as="sourcePoint" />
            <mxPoint x="320" y="210" as="targetPoint" />
            <Array as="points">
              <mxPoint x="200" y="210" />
              <mxPoint x="200" y="363" />
            </Array>
            <mxPoint as="offset" />
          </mxGeometry>
        </mxCell>
        <mxCell id="wX9MfMcd7M8Y0ToEDRrp-52" value="Use" style="edgeLabel;html=1;align=center;verticalAlign=middle;resizable=0;points=[];" vertex="1" connectable="0" parent="wX9MfMcd7M8Y0ToEDRrp-51">
          <mxGeometry x="0.4283" y="-2" relative="1" as="geometry">
            <mxPoint as="offset" />
          </mxGeometry>
        </mxCell>
        <mxCell id="wX9MfMcd7M8Y0ToEDRrp-53" value="&lt;p style=&quot;margin:0px;margin-top:4px;text-align:center;&quot;&gt;main&lt;/p&gt;" style="verticalAlign=top;align=left;overflow=fill;fontSize=12;fontFamily=Helvetica;html=1;whiteSpace=wrap;" vertex="1" parent="WIyWlLk6GJQsqaUBKTNV-1">
          <mxGeometry x="380" y="350" width="100" height="25" as="geometry" />
        </mxCell>
        <mxCell id="wX9MfMcd7M8Y0ToEDRrp-54" value="Use" style="endArrow=open;endSize=12;dashed=1;html=1;rounded=0;exitX=1;exitY=0.5;exitDx=0;exitDy=0;entryX=0;entryY=0.5;entryDx=0;entryDy=0;" edge="1" parent="WIyWlLk6GJQsqaUBKTNV-1" source="wX9MfMcd7M8Y0ToEDRrp-43" target="wX9MfMcd7M8Y0ToEDRrp-53">
          <mxGeometry width="160" relative="1" as="geometry">
            <mxPoint x="290" y="120" as="sourcePoint" />
            <mxPoint x="450" y="120" as="targetPoint" />
          </mxGeometry>
        </mxCell>
      </root>
    </mxGraphModel>
  </diagram>
</mxfile>
